<svg width="50" height="44" viewBox="0 0 50 44" fill="none" xmlns="http://www.w3.org/2000/svg">
<path d="M25.4947 4.49849C22.6434 1.94174 18.9067 0.599119 15.0802 0.756542C11.2537 0.913965 7.63987 2.55899 5.00824 5.34131C2.37661 8.12362 0.935148 11.8234 0.990812 15.6527C1.04648 19.482 2.59487 23.1383 5.30626 25.8429L22.0316 42.5658C22.9502 43.4841 24.1959 44 25.4947 44C26.7936 44 28.0393 43.4841 28.9578 42.5658L45.6832 25.8429C48.3946 23.1383 49.943 19.482 49.9986 15.6527C50.0543 11.8234 48.6128 8.12362 45.9812 5.34131C43.3496 2.55899 39.7357 0.913965 35.9092 0.756542C32.0828 0.599119 28.346 1.94174 25.4947 4.49849ZM22.6243 8.52491L23.7632 9.66132C24.2224 10.1205 24.8453 10.3784 25.4947 10.3784C26.1441 10.3784 26.767 10.1205 27.2263 9.66132L28.3651 8.52491C29.2688 7.58923 30.3499 6.8429 31.5451 6.32947C32.7403 5.81603 34.0258 5.54578 35.3266 5.53448C36.6274 5.52318 37.9174 5.77105 39.1214 6.26363C40.3254 6.75622 41.4192 7.48365 42.339 8.40348C43.2589 9.32332 43.9863 10.4171 44.4789 11.6211C44.9715 12.8251 45.2193 14.1151 45.208 15.4159C45.1967 16.7167 44.9265 18.0022 44.4131 19.1974C43.8996 20.3927 43.1533 21.4737 42.2176 22.3774L25.4947 39.1027L8.77183 22.3774C6.98729 20.5297 5.99984 18.0551 6.02216 15.4864C6.04448 12.9178 7.07478 10.4606 8.89116 8.64425C10.7075 6.82787 13.1647 5.79757 15.7333 5.77525C18.302 5.75292 20.7766 6.74037 22.6243 8.52491Z" fill="#F6F2EC"/>
</svg>
