<svg width="40" height="45" viewBox="0 0 40 45" fill="none" xmlns="http://www.w3.org/2000/svg">
<path d="M20 4.44444C17.6425 4.44444 15.3816 5.38095 13.7146 7.04794C12.0476 8.71493 11.1111 10.9759 11.1111 13.3333C11.1111 15.6908 12.0476 17.9517 13.7146 19.6187C15.3816 21.2857 17.6425 22.2222 20 22.2222C22.3575 22.2222 24.6184 21.2857 26.2854 19.6187C27.9524 17.9517 28.8889 15.6908 28.8889 13.3333C28.8889 10.9759 27.9524 8.71493 26.2854 7.04794C24.6184 5.38095 22.3575 4.44444 20 4.44444ZM6.66667 13.3333C6.66667 9.79711 8.07143 6.40573 10.5719 3.90524C13.0724 1.40476 16.4638 0 20 0C23.5362 0 26.9276 1.40476 29.4281 3.90524C31.9286 6.40573 33.3333 9.79711 33.3333 13.3333C33.3333 16.8696 31.9286 20.2609 29.4281 22.7614C26.9276 25.2619 23.5362 26.6667 20 26.6667C16.4638 26.6667 13.0724 25.2619 10.5719 22.7614C8.07143 20.2609 6.66667 16.8696 6.66667 13.3333ZM11.1111 35.5556C9.343 35.5556 7.64731 36.2579 6.39707 37.5082C5.14682 38.7584 4.44444 40.4541 4.44444 42.2222C4.44444 42.8116 4.21032 43.3768 3.79357 43.7936C3.37682 44.2103 2.81159 44.4444 2.22222 44.4444C1.63285 44.4444 1.06762 44.2103 0.650874 43.7936C0.234126 43.3768 0 42.8116 0 42.2222C0 39.2754 1.17063 36.4492 3.25437 34.3655C5.33811 32.2817 8.16426 31.1111 11.1111 31.1111H28.8889C31.8357 31.1111 34.6619 32.2817 36.7456 34.3655C38.8294 36.4492 40 39.2754 40 42.2222C40 42.8116 39.7659 43.3768 39.3491 43.7936C38.9324 44.2103 38.3671 44.4444 37.7778 44.4444C37.1884 44.4444 36.6232 44.2103 36.2064 43.7936C35.7897 43.3768 35.5556 42.8116 35.5556 42.2222C35.5556 40.4541 34.8532 38.7584 33.6029 37.5082C32.3527 36.2579 30.657 35.5556 28.8889 35.5556H11.1111Z" fill="#F6F2EC"/>
</svg>
