<svg width="49" height="45" viewBox="0 0 49 45" fill="none" xmlns="http://www.w3.org/2000/svg">
<path d="M0 4.95528C0 3.64197 0.516248 2.38244 1.43518 1.45378C2.3541 0.52513 3.60044 0.00341797 4.9 0.00341797H44.1C45.3996 0.00341797 46.6459 0.52513 47.5648 1.45378C48.4838 2.38244 49 3.64197 49 4.95528V32.1905C49 33.5038 48.4838 34.7634 47.5648 35.692C46.6459 36.6207 45.3996 37.1424 44.1 37.1424H32.8643L26.2321 43.8447C25.7727 44.3089 25.1497 44.5697 24.5 44.5697C23.8503 44.5697 23.2273 44.3089 22.7679 43.8447L16.1357 37.1424H4.9C3.60044 37.1424 2.3541 36.6207 1.43518 35.692C0.516248 34.7634 0 33.5038 0 32.1905V4.95528ZM44.1 4.95528H4.9V32.1905H17.15C17.7997 32.1907 18.4228 32.4516 18.8822 32.916L24.5 38.5933L30.1179 32.916C30.5772 32.4516 31.2003 32.1907 31.85 32.1905H44.1V4.95528ZM9.8 13.621C9.8 12.9644 10.0581 12.3346 10.5176 11.8703C10.9771 11.406 11.6002 11.1451 12.25 11.1451H36.75C37.3998 11.1451 38.0229 11.406 38.4824 11.8703C38.9419 12.3346 39.2 12.9644 39.2 13.621C39.2 14.2777 38.9419 14.9075 38.4824 15.3718C38.0229 15.8361 37.3998 16.097 36.75 16.097H12.25C11.6002 16.097 10.9771 15.8361 10.5176 15.3718C10.0581 14.9075 9.8 14.2777 9.8 13.621ZM9.8 23.5248C9.8 22.8681 10.0581 22.2383 10.5176 21.774C10.9771 21.3097 11.6002 21.0488 12.25 21.0488H26.95C27.5998 21.0488 28.2229 21.3097 28.6824 21.774C29.1419 22.2383 29.4 22.8681 29.4 23.5248C29.4 24.1814 29.1419 24.8112 28.6824 25.2755C28.2229 25.7398 27.5998 26.0007 26.95 26.0007H12.25C11.6002 26.0007 10.9771 25.7398 10.5176 25.2755C10.0581 24.8112 9.8 24.1814 9.8 23.5248Z" fill="#F6F2EC"/>
</svg>
