<svg width="62" height="56" viewBox="0 0 62 56" fill="none" xmlns="http://www.w3.org/2000/svg">
<path d="M30.9817 55.8518C32.7672 55.8518 34.2611 54.5694 34.2611 52.9911V31.1252H57.8006C59.5496 31.1252 61.0799 29.777 61.0799 28.1659C61.0799 26.5548 59.5496 25.2395 57.8006 25.2395H34.2611V3.34069C34.2611 1.7624 32.7672 0.47998 30.9817 0.47998C29.1961 0.47998 27.7388 1.7624 27.7388 3.34069V25.2395H4.19928C2.45023 25.2395 0.919922 26.5548 0.919922 28.1659C0.919922 29.777 2.45023 31.1252 4.19928 31.1252H27.7388V52.9911C27.7388 54.5694 29.1961 55.8518 30.9817 55.8518Z" fill="#121716"/>
</svg>
