<svg width="43" height="42" viewBox="0 0 43 42" fill="none" xmlns="http://www.w3.org/2000/svg">
<g filter="url(#filter0_d_94_110)">
<path d="M42.5426 7.54305C42.4232 7.29109 42.2482 7.06225 42.0276 6.86966L34.9073 0.634506C34.6884 0.435999 34.4265 0.277663 34.1369 0.168737C33.8474 0.0598114 33.5359 0.00247655 33.2208 7.84729e-05C32.9056 -0.0023196 32.5931 0.0502671 32.3014 0.15477C32.0098 0.259273 31.7448 0.4136 31.5219 0.608745C31.2991 0.80389 31.1228 1.03595 31.0035 1.29137C30.8842 1.5468 30.8241 1.82048 30.8268 2.09644C30.8296 2.37241 30.8951 2.64514 31.0194 2.89871C31.1438 3.15228 31.3246 3.38162 31.5513 3.57334L34.6202 6.26069H11.8686C8.72128 6.26069 5.70285 7.35555 3.47734 9.30441C1.25184 11.2533 0.00155968 13.8965 0.00155968 16.6526V20.8094C0.00155968 21.3606 0.251615 21.8892 0.696716 22.279C1.14182 22.6688 1.7455 22.8878 2.37497 22.8878C3.00444 22.8878 3.60813 22.6688 4.05323 22.279C4.49833 21.8892 4.74838 21.3606 4.74838 20.8094V16.6526C4.74838 14.9989 5.49855 13.413 6.83385 12.2437C8.16916 11.0744 9.98022 10.4175 11.8686 10.4175H34.6202L31.5513 13.1048C31.119 13.4968 30.8798 14.0218 30.8852 14.5667C30.8906 15.1117 31.1402 15.633 31.5802 16.0183C32.0203 16.4037 32.6156 16.6223 33.2379 16.627C33.8602 16.6317 34.4597 16.4222 34.9073 16.0436L42.0276 9.80849C42.2483 9.61575 42.4234 9.38671 42.5427 9.13454C42.662 8.88237 42.7233 8.61204 42.723 8.33908M42.5426 7.54305C42.6612 7.79344 42.7225 8.06178 42.723 8.33284L42.5426 7.54305ZM0.181939 32.4837C0.00130529 32.8634 -0.0461751 33.2816 0.0455444 33.6851C0.137264 34.0885 0.364033 34.4589 0.696969 34.7491L7.81721 40.9843C8.26484 41.3629 8.86437 41.5723 9.48667 41.5676C10.109 41.5629 10.7042 41.3443 11.1443 40.9589C11.5843 40.5736 11.834 40.0523 11.8394 39.5074C11.8448 38.9624 11.6055 38.4374 11.1732 38.0454L8.10439 35.3581H30.8559C34.0033 35.3581 37.0217 34.2632 39.2472 32.3143C41.4727 30.3655 42.723 27.7223 42.723 24.9661V20.8094C42.723 20.2582 42.4729 19.7295 42.0278 19.3397C41.5827 18.95 40.979 18.731 40.3496 18.731C39.7201 18.731 39.1164 18.95 38.6713 19.3397C38.2262 19.7295 37.9762 20.2582 37.9762 20.8094V24.9661C37.9762 26.6198 37.226 28.2057 35.8907 29.3751C34.5554 30.5444 32.7443 31.2013 30.8559 31.2013H8.10439L11.1732 28.5139C11.3999 28.3222 11.5807 28.0929 11.7051 27.8393C11.8295 27.5857 11.895 27.313 11.8977 27.0371C11.9004 26.7611 11.8404 26.4874 11.721 26.232C11.6017 25.9766 11.4255 25.7445 11.2026 25.5494C10.9798 25.3542 10.7148 25.1999 10.4231 25.0954C10.1314 24.9909 9.81889 24.9383 9.50375 24.9407C9.18861 24.9431 8.87717 25.0004 8.5876 25.1093C8.29804 25.2183 8.03615 25.3766 7.81721 25.5751L0.696969 31.8103M0.181939 32.4837C0.300459 32.2335 0.473822 32.0062 0.692222 31.8144L0.181939 32.4837Z" fill="#F6F2EC"/>
</g>
<defs>
<filter id="filter0_d_94_110" x="-4" y="0" width="50.7227" height="49.5677" filterUnits="userSpaceOnUse" color-interpolation-filters="sRGB">
<feFlood flood-opacity="0" result="BackgroundImageFix"/>
<feColorMatrix in="SourceAlpha" type="matrix" values="0 0 0 0 0 0 0 0 0 0 0 0 0 0 0 0 0 0 127 0" result="hardAlpha"/>
<feOffset dy="4"/>
<feGaussianBlur stdDeviation="2"/>
<feComposite in2="hardAlpha" operator="out"/>
<feColorMatrix type="matrix" values="0 0 0 0 0 0 0 0 0 0 0 0 0 0 0 0 0 0 0.25 0"/>
<feBlend mode="normal" in2="BackgroundImageFix" result="effect1_dropShadow_94_110"/>
<feBlend mode="normal" in="SourceGraphic" in2="effect1_dropShadow_94_110" result="shape"/>
</filter>
</defs>
</svg>
