<svg width="38" height="45" viewBox="0 0 38 45" fill="none" xmlns="http://www.w3.org/2000/svg">
<path d="M1.09655e-08 4.42887C1.09655e-08 3.25426 0.496625 2.12776 1.38062 1.29719C2.26462 0.466612 3.46358 0 4.71375 0H32.9962C34.2464 0 35.4453 0.466612 36.3293 1.29719C37.2133 2.12776 37.71 3.25426 37.71 4.42887V42.0743C37.71 42.4811 37.5908 42.8801 37.3653 43.2275C37.1399 43.5748 36.8169 43.8571 36.432 44.0433C36.047 44.2295 35.6148 44.3125 35.183 44.2832C34.7511 44.2538 34.3362 44.1132 33.9837 43.8768L18.855 33.7237L3.72622 43.8768C3.37379 44.1132 2.95887 44.2538 2.527 44.2832C2.09512 44.3125 1.66298 44.2295 1.278 44.0433C0.893027 43.8571 0.570095 43.5748 0.344649 43.2275C0.119204 42.8801 -4.17509e-05 42.4811 1.09655e-08 42.0743V4.42887ZM32.9962 4.42887H4.71375V37.7716L17.4856 29.2018C17.8853 28.9338 18.364 28.7897 18.855 28.7897C19.346 28.7897 19.8247 28.9338 20.2243 29.2018L32.9962 37.7694V4.42887Z" fill="#F6F2EC"/>
</svg>
