<svg width="18" height="18" viewBox="0 0 18 18" fill="none" xmlns="http://www.w3.org/2000/svg">
<path d="M7.35102 14.5628C8.93784 14.5628 10.4195 14.0515 11.624 13.1993L16.155 17.6875C16.3653 17.8958 16.6426 18 16.9294 18C17.5507 18 18 17.5266 18 16.9206C18 16.6365 17.9045 16.3714 17.694 16.1631L13.1917 11.6938C14.1381 10.4629 14.702 8.93843 14.702 7.28144C14.702 3.27617 11.3945 0 7.35102 0C3.29792 0 0 3.27617 0 7.28144C0 11.2867 3.29792 14.5628 7.35102 14.5628ZM7.35102 12.991C4.18693 12.991 1.58682 10.4061 1.58682 7.28144C1.58682 4.15676 4.18693 1.57183 7.35102 1.57183C10.5056 1.57183 13.1152 4.15676 13.1152 7.28144C13.1152 10.4061 10.5056 12.991 7.35102 12.991Z" fill="#858585"/>
</svg>
