<svg width="40" height="40" viewBox="0 0 40 40" fill="none" xmlns="http://www.w3.org/2000/svg">
<path d="M20.0005 4.00659C19.4703 4.00659 18.9618 4.21722 18.5868 4.59215C18.2119 4.96708 18.0013 5.4756 18.0013 6.00583C18.0013 9.38854 13.9108 11.0839 11.5177 8.69081C11.3333 8.49986 11.1127 8.34755 10.8688 8.24277C10.6249 8.13799 10.3625 8.08284 10.0971 8.08054C9.83161 8.07823 9.56836 8.12881 9.32266 8.22934C9.07696 8.32986 8.85374 8.47831 8.66602 8.66602C8.47831 8.85374 8.32986 9.07696 8.22934 9.32266C8.12881 9.56836 8.07823 9.83161 8.08054 10.0971C8.08284 10.3625 8.13799 10.6249 8.24277 10.8688C8.34755 11.1127 8.49986 11.3333 8.69081 11.5177C11.0839 13.9108 9.39054 18.0013 6.00583 18.0013C5.4756 18.0013 4.96708 18.2119 4.59215 18.5868C4.21722 18.9618 4.00659 19.4703 4.00659 20.0005C4.00659 20.5307 4.21722 21.0392 4.59215 21.4142C4.96708 21.7891 5.4756 21.9997 6.00583 21.9997C9.38854 21.9997 11.0839 26.0902 8.69081 28.4833C8.32663 28.8603 8.12512 29.3653 8.12967 29.8895C8.13423 30.4137 8.34448 30.9152 8.71516 31.2858C9.08583 31.6565 9.58727 31.8668 10.1115 31.8713C10.6357 31.8759 11.1407 31.6744 11.5177 31.3102C13.9108 28.9171 18.0013 30.6105 18.0013 33.9952C18.0013 34.5254 18.2119 35.0339 18.5868 35.4088C18.9618 35.7838 19.4703 35.9944 20.0005 35.9944C20.5307 35.9944 21.0392 35.7838 21.4142 35.4088C21.7891 35.0339 21.9997 34.5254 21.9997 33.9952C21.9997 30.6125 26.0902 28.9171 28.4833 31.3102C28.6677 31.5011 28.8883 31.6534 29.1322 31.7582C29.3761 31.863 29.6385 31.9182 29.9039 31.9205C30.1694 31.9228 30.4326 31.8722 30.6783 31.7717C30.924 31.6711 31.1473 31.5227 31.335 31.335C31.5227 31.1473 31.6711 30.924 31.7717 30.6783C31.8722 30.4326 31.9228 30.1694 31.9205 29.9039C31.9182 29.6385 31.863 29.3761 31.7582 29.1322C31.6534 28.8883 31.5011 28.6677 31.3102 28.4833C28.9171 26.0902 30.6105 21.9997 33.9952 21.9997C34.5254 21.9997 35.0339 21.7891 35.4088 21.4142C35.7838 21.0392 35.9944 20.5307 35.9944 20.0005C35.9944 19.4703 35.7838 18.9618 35.4088 18.5868C35.0339 18.2119 34.5254 18.0013 33.9952 18.0013C30.6125 18.0013 28.9171 13.9108 31.3102 11.5177C31.6744 11.1407 31.8759 10.6357 31.8713 10.1115C31.8668 9.58727 31.6565 9.08583 31.2858 8.71516C30.9152 8.34448 30.4137 8.13423 29.8895 8.12967C29.3653 8.12512 28.8603 8.32663 28.4833 8.69081C26.0902 11.0839 21.9997 9.39054 21.9997 6.00583C21.9997 5.4756 21.7891 4.96708 21.4142 4.59215C21.0392 4.21722 20.5307 4.00659 20.0005 4.00659ZM14.0188 5.56C14.1293 4.04912 14.8075 2.63604 15.9172 1.60466C17.0268 0.573276 18.4856 0 20.0005 0C21.5154 0 22.9742 0.573276 24.0838 1.60466C25.1934 2.63604 25.8717 4.04912 25.9822 5.56C27.1294 4.57474 28.6064 4.05918 30.1175 4.11656C31.6287 4.17394 33.0623 4.80002 34.1315 5.86944C35.2007 6.93885 35.8264 8.37267 35.8834 9.8838C35.9404 11.3949 35.4245 12.8718 34.439 14.0188C35.9499 14.1291 37.3631 14.8071 38.3947 15.9165C39.4262 17.0259 39.9997 18.4846 40 19.9996C40.0003 21.5145 39.4272 22.9734 38.396 24.0832C37.3648 25.193 35.9519 25.8714 34.441 25.9822C35.4263 27.1294 35.9418 28.6064 35.8844 30.1175C35.8271 31.6287 35.201 33.0623 34.1316 34.1315C33.0621 35.2007 31.6283 35.8264 30.1172 35.8834C28.6061 35.9404 27.1292 35.4245 25.9822 34.439C25.8717 35.9499 25.1934 37.363 24.0838 38.3943C22.9742 39.4257 21.5154 39.999 20.0005 39.999C18.4856 39.999 17.0268 39.4257 15.9172 38.3943C14.8075 37.363 14.1293 35.9499 14.0188 34.439C12.8718 35.4245 11.3949 35.9404 9.8838 35.8834C8.37267 35.8264 6.93885 35.2007 5.86944 34.1315C4.80002 33.0623 4.17394 31.6287 4.11656 30.1175C4.05918 28.6064 4.57474 27.1294 5.56 25.9822C4.04912 25.8717 2.63604 25.1934 1.60466 24.0838C0.573276 22.9742 0 21.5154 0 20.0005C0 18.4856 0.573276 17.0268 1.60466 15.9172C2.63604 14.8075 4.04912 14.1293 5.56 14.0188C4.57173 12.872 4.05366 11.394 4.10974 9.88119C4.16581 8.36839 4.79187 6.93275 5.86231 5.86231C6.93275 4.79187 8.36839 4.16581 9.88119 4.10974C11.394 4.05366 12.872 4.57173 14.0188 5.56Z" fill="#F6F2EC"/>
<path d="M19.9993 16.002C18.9388 16.002 17.9218 16.4233 17.1719 17.1731C16.4221 17.923 16.0008 18.94 16.0008 20.0005C16.0008 21.061 16.4221 22.078 17.1719 22.8279C17.9218 23.5777 18.9388 23.999 19.9993 23.999C21.0597 23.999 22.0768 23.5777 22.8266 22.8279C23.5765 22.078 23.9978 21.061 23.9978 20.0005C23.9978 18.94 23.5765 17.923 22.8266 17.1731C22.0768 16.4233 21.0597 16.002 19.9993 16.002ZM14.3454 14.3467C15.0831 13.5829 15.9655 12.9736 16.9412 12.5545C17.9169 12.1354 18.9662 11.9148 20.0281 11.9056C21.0899 11.8964 22.1429 12.0987 23.1257 12.5008C24.1085 12.9029 25.0014 13.4967 25.7522 14.2475C26.5031 14.9984 27.0969 15.8913 27.499 16.8741C27.9011 17.8569 28.1034 18.9099 28.0942 19.9717C28.085 21.0336 27.8644 22.0829 27.4452 23.0586C27.0261 24.0342 26.4169 24.9167 25.6531 25.6543C24.1449 27.1111 22.1248 27.9171 20.0281 27.8989C17.9313 27.8807 15.9255 27.0396 14.4428 25.5569C12.9601 24.0742 12.1191 22.0685 12.1009 19.9717C12.0827 17.8749 12.8887 15.8549 14.3454 14.3467Z" fill="#F6F2EC"/>
</svg>
