<svg width="41" height="42" viewBox="0 0 41 42" fill="none" xmlns="http://www.w3.org/2000/svg">
<path d="M40.1709 20.5996C40.1707 20.9821 40.0667 21.357 39.8705 21.6823C39.6743 22.0076 39.3937 22.2704 39.0602 22.4414L2.90612 40.9823C2.56682 41.156 2.18654 41.2275 1.80924 41.1888C1.43195 41.15 1.07306 41.0025 0.774082 40.7633C0.475101 40.5241 0.248245 40.203 0.119743 39.8371C-0.00875473 39.4712 -0.0336494 39.0754 0.0479431 38.6956L3.96865 20.5996L0.0479431 2.50572C-0.0341263 2.12577 -0.00959396 1.72974 0.118706 1.3635C0.247005 0.997262 0.47382 0.675786 0.772892 0.436296C1.07196 0.196806 1.43105 0.0490987 1.80859 0.0102772C2.18612 -0.0285443 2.56665 0.0431074 2.90612 0.216937L39.0602 18.7579C39.3937 18.9289 39.6743 19.1917 39.8705 19.517C40.0667 19.8423 40.1707 20.2172 40.1709 20.5996ZM7.63628 22.6597L4.88455 35.3624L29.6541 22.6597H7.63628ZM29.6541 18.5395L4.88455 5.83691L7.63628 18.5395H29.6541Z" fill="#F6F2EC"/>
</svg>
