<svg width="40" height="39" viewBox="0 0 40 39" fill="none" xmlns="http://www.w3.org/2000/svg">
<path d="M16 4.45154C13.8783 4.45154 11.8434 5.25424 10.3431 6.68305C8.84285 8.11186 8 10.0497 8 12.0704C8 14.091 8.84285 16.0289 10.3431 17.4577C11.8434 18.8865 13.8783 19.6892 16 19.6892C18.1217 19.6892 20.1566 18.8865 21.6569 17.4577C23.1571 16.0289 24 14.091 24 12.0704C24 10.0497 23.1571 8.11186 21.6569 6.68305C20.1566 5.25424 18.1217 4.45154 16 4.45154ZM4 12.0704C4 9.03942 5.26428 6.13259 7.51472 3.98938C9.76516 1.84617 12.8174 0.64212 16 0.64212C19.1826 0.64212 22.2348 1.84617 24.4853 3.98938C26.7357 6.13259 28 9.03942 28 12.0704C28 15.1013 26.7357 18.0082 24.4853 20.1514C22.2348 22.2946 19.1826 23.4986 16 23.4986C12.8174 23.4986 9.76516 22.2946 7.51472 20.1514C5.26428 18.0082 4 15.1013 4 12.0704ZM29.656 3.9887C29.8417 3.8116 30.0623 3.67111 30.3051 3.57526C30.5479 3.47941 30.8082 3.43007 31.071 3.43007C31.3338 3.43007 31.5941 3.47941 31.8369 3.57526C32.0797 3.67111 32.3003 3.8116 32.486 3.9887C33.6005 5.04993 34.4846 6.30986 35.0878 7.69653C35.691 9.08319 36.0014 10.5694 36.0014 12.0704C36.0014 13.5713 35.691 15.0576 35.0878 16.4442C34.4846 17.8309 33.6005 19.0908 32.486 20.1521C32.3002 20.329 32.0796 20.4694 31.8368 20.5652C31.594 20.661 31.3338 20.7103 31.071 20.7103C30.8082 20.7103 30.548 20.661 30.3052 20.5652C30.0624 20.4694 29.8418 20.329 29.656 20.1521C29.4702 19.9751 29.3228 19.765 29.2222 19.5338C29.1216 19.3026 29.0699 19.0548 29.0699 18.8045C29.0699 18.5542 29.1216 18.3064 29.2222 18.0752C29.3228 17.844 29.4702 17.6339 29.656 17.4569C31.1558 16.0282 31.9983 14.0906 31.9983 12.0704C31.9983 10.0501 31.1558 8.1126 29.656 6.68386C29.47 6.50696 29.3225 6.2969 29.2219 6.06567C29.1212 5.83444 29.0694 5.58659 29.0694 5.33628C29.0694 5.08597 29.1212 4.83812 29.2219 4.60689C29.3225 4.37566 29.47 4.16559 29.656 3.9887ZM31.06 28.7499C31.1889 28.2603 31.5166 27.8395 31.9711 27.5799C32.4256 27.3202 32.9698 27.243 33.484 27.3652C36.14 27.9976 37.822 29.6128 38.788 31.4565C39.724 33.2374 40 35.2278 40 36.8316C40 37.3368 39.7893 37.8212 39.4142 38.1784C39.0391 38.5356 38.5304 38.7363 38 38.7363C37.4696 38.7363 36.9609 38.5356 36.5858 38.1784C36.2107 37.8212 36 37.3368 36 36.8316C36 35.5802 35.776 34.2355 35.212 33.1593C34.678 32.1441 33.858 31.3803 32.514 31.0603C31.9999 30.9376 31.558 30.6255 31.2854 30.1926C31.0128 29.7598 30.9317 29.2397 31.06 28.7499ZM9 31.1175C6.48 31.1175 4 33.4279 4 36.8316C4 37.3368 3.78929 37.8212 3.41421 38.1784C3.03914 38.5356 2.53043 38.7363 2 38.7363C1.46957 38.7363 0.960859 38.5356 0.585786 38.1784C0.210714 37.8212 0 37.3368 0 36.8316C0 31.8184 3.786 27.3081 9 27.3081H23C28.214 27.3081 32 31.8184 32 36.8316C32 37.3368 31.7893 37.8212 31.4142 38.1784C31.0391 38.5356 30.5304 38.7363 30 38.7363C29.4696 38.7363 28.9609 38.5356 28.5858 38.1784C28.2107 37.8212 28 37.3368 28 36.8316C28 33.4279 25.52 31.1175 23 31.1175H9Z" fill="#F6F2EC"/>
</svg>
